<svg width="1920" height="1080" viewBox="0 0 1920 1080" xmlns="http://www.w3.org/2000/svg"><rect width="1920" height="1080" fill="#3f4f44"/><path d="M 0,1080 C 0,1080 0,135 0,135 C 79.68461538461537,133.77692307692308 159.36923076923074,132.55384615384617 272,120 C 384.63076923076926,107.44615384615383 530.2076923076924,83.56153846153843 647,94 C 763.7923076923076,104.43846153846157 851.8,149.20000000000002 941,157 C 1030.2,164.79999999999998 1120.5923076923077,135.6384615384615 1232,115 C 1343.4076923076923,94.36153846153847 1475.8307692307692,82.24615384615385 1594,87 C 1712.1692307692308,91.75384615384615 1816.0846153846155,113.37692307692308 1920,135 C 1920,135 1920,1080 1920,1080 Z" fill="#000000" opacity="0.075"/><path d="M 0,1080 C 0,1080 0,270 0,270 C 104.96923076923076,238.63333333333333 209.93846153846152,207.26666666666668 309,220 C 408.0615384615385,232.73333333333332 501.21538461538466,289.5666666666666 606,295 C 710.7846153846153,300.4333333333334 827.2,254.46666666666667 929,230 C 1030.8,205.53333333333333 1117.9846153846154,202.56666666666666 1240,224 C 1362.0153846153846,245.43333333333334 1518.8615384615384,291.2666666666667 1638,303 C 1757.1384615384616,314.7333333333333 1838.5692307692307,292.3666666666667 1920,270 C 1920,270 1920,1080 1920,1080 Z" fill="#000000" opacity="0.15"/><path d="M 0,1080 C 0,1080 0,405 0,405 C 109.6,436.0205128205128 219.2,467.0410256410256 338,454 C 456.8,440.9589743589744 584.8,383.85641025641024 688,372 C 791.2,360.14358974358976 869.5999999999999,393.53333333333336 968,408 C 1066.4,422.46666666666664 1184.8,418.01025641025643 1296,415 C 1407.2,411.98974358974357 1511.2,410.4256410256411 1614,409 C 1716.8,407.5743589743589 1818.4,406.28717948717946 1920,405 C 1920,405 1920,1080 1920,1080 Z" fill="#000000" opacity="0.22499999999999998"/><path d="M 0,1080 C 0,1080 0,540 0,540 C 95.56666666666666,528.4923076923077 191.13333333333333,516.9846153846154 291,505 C 390.8666666666667,493.01538461538456 495.0333333333332,480.55384615384605 622,503 C 748.9666666666668,525.446153846154 898.7333333333336,582.8000000000001 1007,587 C 1115.2666666666664,591.1999999999999 1182.0333333333333,542.2461538461539 1264,515 C 1345.9666666666667,487.7538461538461 1443.1333333333334,482.2153846153846 1555,490 C 1666.8666666666666,497.7846153846154 1793.4333333333334,518.8923076923077 1920,540 C 1920,540 1920,1080 1920,1080 Z" fill="#000000" opacity="0.3"/><path d="M 0,1080 C 0,1080 0,675 0,675 C 82.16666666666666,664.6333333333333 164.33333333333331,654.2666666666667 271,660 C 377.6666666666667,665.7333333333333 508.83333333333337,687.5666666666667 618,693 C 727.1666666666666,698.4333333333333 814.3333333333334,687.4666666666667 915,693 C 1015.6666666666666,698.5333333333333 1129.8333333333335,720.5666666666666 1261,716 C 1392.1666666666665,711.4333333333334 1540.3333333333333,680.2666666666668 1653,669 C 1765.6666666666667,657.7333333333332 1842.8333333333335,666.3666666666666 1920,675 C 1920,675 1920,1080 1920,1080 Z" fill="#000000" opacity="0.375"/><path d="M 0,1080 C 0,1080 0,810 0,810 C 88.67435897435897,805.1923076923076 177.34871794871793,800.3846153846154 278,784 C 378.65128205128207,767.6153846153846 491.2794871794871,739.6538461538462 621,759 C 750.7205128205129,778.3461538461538 897.5333333333333,845.0000000000001 1014,860 C 1130.4666666666667,874.9999999999999 1216.5871794871796,838.3461538461538 1315,821 C 1413.4128205128204,803.6538461538462 1524.1179487179488,805.6153846153845 1627,807 C 1729.8820512820512,808.3846153846155 1824.9410256410256,809.1923076923077 1920,810 C 1920,810 1920,1080 1920,1080 Z" fill="#000000" opacity="0.44999999999999996"/><path d="M 0,1080 C 0,1080 0,945 0,945 C 112.70000000000002,968.6769230769231 225.40000000000003,992.3538461538462 327,993 C 428.59999999999997,993.6461538461538 519.1,971.2615384615384 635,960 C 750.9,948.7384615384616 892.1999999999998,948.5999999999999 1000,937 C 1107.8000000000002,925.4000000000001 1182.1000000000001,902.3384615384617 1283,904 C 1383.8999999999999,905.6615384615383 1511.3999999999999,932.0461538461537 1622,943 C 1732.6000000000001,953.9538461538463 1826.3000000000002,949.4769230769232 1920,945 C 1920,945 1920,1080 1920,1080 Z" fill="#000000" opacity="0.525"/></svg>